<?xml version="1.0" encoding="UTF-8" standalone="no"?>
<svg width="260px" height="260px" viewBox="0 0 260 260" version="1.1" xmlns="http://www.w3.org/2000/svg" xmlns:xlink="http://www.w3.org/1999/xlink" xmlns:sketch="http://www.bohemiancoding.com/sketch/ns">
    <!-- Generator: Sketch 3.4.4 (17249) - http://www.bohemiancoding.com/sketch -->
    <title>Subscribers</title>
    <desc>Created with Sketch.</desc>
    <defs></defs>
    <g id="Page-1" stroke="none" stroke-width="1" fill="none" fill-rule="evenodd" sketch:type="MSPage">
        <g id="Group" sketch:type="MSLayerGroup" transform="translate(1.000000, 0.000000)">
            <path fill="#1976D2" d="M166.046 83.065v151.66H27.026c-18.957 0-18.957-18.96-18.957-18.96v-132.7h157.976z"/>
            <path fill="#90CAF9" d="M45.984.916v214.85s0 18.958-18.957 18.958H203.96c13.96 0 25.277-11.32 25.277-25.277V.917H45.984z"/>
            <circle fill="#43A047" cx="191.323" cy="196.809" r="63.191"/>
            <path fill="#1976D2" d="M147.09 120.98v12.637h2.406c12-7.975 26.378-12.638 41.827-12.638H147.09zM83.9 184.17h32.737c.735-4.347 1.84-8.568 3.286-12.638H83.9v12.638zm0 12.64v12.637h32.737c-.694-4.12-1.144-8.322-1.144-12.638H83.9zm63.19-126.384h50.553v12.64H147.09v-12.64zm0 25.277h50.553v12.638H147.09V95.704zM83.9 26.193h113.743v25.275H83.9V26.193zm0 132.7h41.856c2.502-4.32 5.42-8.346 8.695-12.076v-.562H83.9v12.64zm0-88.467h50.55v12.64H83.9v-12.64zm0 25.277h50.55v12.638H83.9V95.704zm0 25.276h50.55v12.637H83.9V120.98z"/>
            <path fill="#DCEDC8" d="M229.237 234.715H210.28v.01l-6.32-.008v-25.27l25.277 25.268z"/>
            <path fill="none" stroke="#DCEDC8" stroke-width="10.833" d="M164.52 223.614c-14.814-14.805-14.814-38.813 0-53.61 14.803-14.814 38.816-14.814 53.61 0 14.81 14.803 14.81 38.81 0 53.608"/>
        </g>
    </g>
</svg>